<svg width="32" height="32" viewBox="0 0 32 32" fill="none" xmlns="http://www.w3.org/2000/svg">
<g clip-path="url(#clip0_561_1609)">
<path d="M13.3003 21.165L10.9731 17.6314L10.9178 17.5464L8.05816 13.239L6.78978 11.3272H4.60797C4.54559 11.437 4.45354 11.5288 4.34145 11.5928C4.22936 11.6569 4.10137 11.6908 3.97089 11.6911C3.77801 11.6911 3.59299 11.6177 3.4566 11.4869C3.32021 11.3562 3.24362 11.1788 3.24362 10.9939C3.24362 10.809 3.32021 10.6316 3.4566 10.5009C3.59299 10.3701 3.77801 10.2967 3.97089 10.2967C4.10137 10.297 4.22936 10.3309 4.34145 10.395C4.45354 10.459 4.54559 10.5508 4.60797 10.6606H6.35344L5.24655 8.9873H0.0101318L2.82467 13.2264L3.71494 14.5665H5.9898C6.05217 14.4566 6.14422 14.3648 6.25631 14.3008C6.36841 14.2368 6.49639 14.2028 6.62687 14.2025C6.81976 14.2025 7.00478 14.276 7.14117 14.4067C7.27756 14.5375 7.35415 14.7148 7.35415 14.8997C7.35476 15.019 7.32271 15.1363 7.26111 15.24L10.461 20.0829C10.5912 20.0745 10.7214 20.0999 10.8378 20.1563C10.9543 20.2127 11.0527 20.2981 11.1229 20.4036C11.2247 20.5595 11.2581 20.7477 11.2159 20.9271C11.1737 21.1065 11.0593 21.2627 10.8975 21.3616C10.7349 21.4592 10.5386 21.4913 10.3514 21.4508C10.1642 21.4103 10.0013 21.3005 9.89818 21.1454C9.82851 21.0396 9.78981 20.9177 9.78623 20.7925C9.78265 20.6674 9.81434 20.5436 9.87785 20.4343L6.67783 15.59H6.62838C6.49775 15.5896 6.36966 15.5554 6.25756 15.4911C6.14545 15.4268 6.0534 15.3348 5.99122 15.2246H4.15271L9.97089 23.9859H11.792L13.3047 21.8162C13.2487 21.7162 13.2191 21.6046 13.2183 21.4911C13.2176 21.3776 13.2457 21.2656 13.3003 21.165Z" fill="#11044C"/>
<path d="M17.1825 20.7422L15.0211 23.9996H12.4276L13.6873 22.1952C13.8466 22.2106 14.0065 22.1737 14.1411 22.0906C14.3025 21.9917 14.4167 21.8358 14.4589 21.6567C14.5011 21.4776 14.4679 21.2898 14.3666 21.134C14.2966 21.0283 14.1982 20.9426 14.0818 20.8859C13.9653 20.8292 13.835 20.8037 13.7047 20.8119L12.8029 19.4453L14.5614 16.7959L17.1825 20.7422Z" fill="#11044C"/>
<path d="M19.7207 13.8984L20.6924 15.3612L19.6465 16.9369L17.7426 13.9194L17.7294 13.8984H19.7207Z" fill="#26AAE6"/>
<path d="M14.8567 11.2911L13.7411 12.7343L11.2684 9H22.2138L21.3003 10.308C21.1706 10.2966 21.0401 10.3188 20.9224 10.3722C20.8047 10.4257 20.7042 10.5085 20.6313 10.612C20.6185 10.6299 20.6068 10.6485 20.5963 10.6678H16.1556C16.0933 10.5579 16.0012 10.4661 15.8891 10.4021C15.777 10.338 15.649 10.3041 15.5185 10.3038C15.3257 10.3038 15.1406 10.3773 15.0043 10.508C14.8679 10.6388 14.7913 10.8161 14.7913 11.001C14.7907 11.1011 14.813 11.2001 14.8567 11.2911Z" fill="#26AAE6"/>
<path d="M16.3767 13.5681C16.3767 13.753 16.4534 13.9303 16.5898 14.0611C16.7262 14.1918 16.9111 14.2653 17.104 14.2653H17.1389L19.2189 17.5617L18.0552 19.3118L15.4371 15.3655L14.0902 13.3366L15.3644 11.6897C15.398 11.695 15.4321 11.6978 15.4662 11.6981C15.5967 11.6978 15.7247 11.6639 15.8367 11.5998C15.9488 11.5358 16.0409 11.444 16.1033 11.3342H20.5425C20.5983 11.4336 20.6787 11.5184 20.7767 11.581C20.9367 11.6827 21.132 11.7197 21.3203 11.684C21.5086 11.6482 21.6745 11.5425 21.7818 11.3899C21.8539 11.2857 21.8955 11.1649 21.9022 11.04C21.9088 10.9151 21.8803 10.7909 21.8196 10.6802L22.9832 9.00684H24.8931L22.08 13.2445H17.7353C17.6729 13.1347 17.5809 13.0429 17.4688 12.9789C17.3567 12.9148 17.2287 12.8809 17.0982 12.8806C16.9081 12.882 16.7261 12.9548 16.5913 13.0833C16.4564 13.2118 16.3794 13.3858 16.3767 13.5681Z" fill="#26AAE6"/>
<path d="M28.7156 11.3271C28.6534 11.4368 28.5615 11.5284 28.4497 11.5925C28.3379 11.6565 28.2103 11.6906 28.08 11.6911H28.0175L26.9585 13.2389C27.0203 13.3493 27.05 13.4736 27.0443 13.5987C27.0387 13.7239 26.998 13.8452 26.9265 13.9501C26.8206 14.1032 26.6559 14.2101 26.4683 14.2474C26.2806 14.2848 26.0851 14.2496 25.9243 14.1495C25.8234 14.0863 25.7405 14.0001 25.6829 13.8985H23.5011L21.5346 16.8631L18.9163 20.8121L16.7985 24.0026H19.0749L23.7659 16.9342C23.7026 16.825 23.6711 16.7015 23.6747 16.5766C23.6783 16.4518 23.7168 16.3301 23.7862 16.2244C23.8898 16.0694 24.0532 15.9599 24.2406 15.92C24.4281 15.88 24.6245 15.9128 24.7869 16.0111C24.9482 16.1104 25.0621 16.2668 25.1037 16.4462C25.1454 16.6256 25.1116 16.8135 25.0095 16.9691C24.939 17.0745 24.8402 17.1598 24.7235 17.2159C24.6068 17.2721 24.4765 17.2972 24.3462 17.2884L19.8909 24.0026H22.0407L24.1585 20.8121L29.184 13.2403L30.4524 11.3285L28.7156 11.3271Z" fill="#90218A"/>
<path d="M32 9L30.8931 10.6733H28.7113C28.649 10.5637 28.5572 10.472 28.4454 10.408C28.3336 10.344 28.2058 10.3099 28.0756 10.3094C27.8827 10.3094 27.6978 10.3828 27.5614 10.5136C27.425 10.6443 27.3483 10.8217 27.3483 11.0066C27.348 11.122 27.378 11.2357 27.4356 11.3371L26.3767 12.8835C26.2466 12.8731 26.1158 12.8965 25.9984 12.9512C25.8809 13.0059 25.781 13.0899 25.7091 13.1945C25.6976 13.2111 25.6868 13.2284 25.6771 13.2461H23.9316L26.7447 9.00837L32 9Z" fill="#90218A"/>
</g>
<defs>
<clipPath id="clip0_561_1609">
<rect width="32" height="15" fill="white" transform="translate(0 9)"/>
</clipPath>
</defs>
</svg>
