<svg width="22" height="23" viewBox="0 0 22 23" fill="none" xmlns="http://www.w3.org/2000/svg">
<g id="settings">
<path id="Path" fill-rule="evenodd" clip-rule="evenodd" d="M9.46458 4.12128C9.85508 2.51162 12.1449 2.51162 12.5354 4.12128C12.6543 4.61175 13.0002 5.01597 13.4664 5.20913C13.9327 5.40229 14.4631 5.36117 14.894 5.09845C16.3084 4.23678 17.9282 5.85562 17.0665 7.27095C16.8042 7.70165 16.7631 8.23169 16.9561 8.69763C17.149 9.16357 17.5527 9.50945 18.0428 9.62862C19.6524 10.0191 19.6524 12.3089 18.0428 12.6994C17.5523 12.8183 17.1481 13.1642 16.9549 13.6305C16.7617 14.0967 16.8029 14.6271 17.0656 15.058C17.9272 16.4724 16.3084 18.0922 14.8931 17.2305C14.4624 16.9682 13.9323 16.9272 13.4664 17.1201C13.0005 17.313 12.6546 17.7168 12.5354 18.2068C12.1449 19.8164 9.85508 19.8164 9.46458 18.2068C9.34574 17.7163 8.9998 17.3121 8.53357 17.1189C8.06734 16.9258 7.53689 16.9669 7.106 17.2296C5.69158 18.0913 4.07183 16.4724 4.9335 15.0571C5.19584 14.6264 5.23687 14.0964 5.04393 13.6304C4.851 13.1645 4.44727 12.8186 3.95725 12.6994C2.34758 12.3089 2.34758 10.0191 3.95725 9.62862C4.44772 9.50978 4.85194 9.16383 5.0451 8.6976C5.23826 8.23137 5.19713 7.70092 4.93442 7.27003C4.07275 5.85562 5.69158 4.23587 7.10692 5.09753C8.02358 5.65487 9.21158 5.1617 9.46458 4.12128Z" stroke="currentColor" stroke-width="1.5" stroke-linecap="round" stroke-linejoin="round"/>
<circle id="Oval" cx="11" cy="11.164" r="2.75" stroke="currentColor" stroke-linecap="round" stroke-linejoin="round"/>
</g>
</svg>
