<svg width="22" height="23" viewBox="0 0 22 23" fill="none" xmlns="http://www.w3.org/2000/svg">
<g id="users-02">
<path id="Icon" d="M14.6667 3.34278C16.0249 4.01777 16.9584 5.41938 16.9584 7.039C16.9584 8.65862 16.0249 10.0602 14.6667 10.7352M16.5 15.5332C17.8855 16.1601 19.1332 17.1819 20.1667 18.4973M1.83337 18.4973C3.61766 16.2264 6.04012 14.8307 8.70837 14.8307C11.3766 14.8307 13.7991 16.2264 15.5834 18.4973M12.8334 7.039C12.8334 9.31718 10.9865 11.164 8.70837 11.164C6.4302 11.164 4.58337 9.31718 4.58337 7.039C4.58337 4.76083 6.4302 2.914 8.70837 2.914C10.9865 2.914 12.8334 4.76083 12.8334 7.039Z" stroke="currentColor" stroke-width="1.5" stroke-linecap="round" stroke-linejoin="round"/>
</g>
</svg>
